<svg width="18" height="27" viewBox="0 0 18 27" fill="none" xmlns="http://www.w3.org/2000/svg">
<g clip-path="url(#clip0_123_81)">
<path d="M5.92097 20.1142C3.93194 22.0878 2.03513 23.969 0 25.988V0C5.93414 5.87387 12.0049 11.8856 18 17.8211H10.2464C11.2607 20.2342 12.2042 22.4819 13.1904 24.8285C11.7415 25.5486 10.3222 26.2524 8.81888 27C7.85236 24.7053 6.91712 22.4819 5.92097 20.1142ZM14.9934 16.5902C10.3963 12.0413 5.78924 7.48261 1.29089 3.03099V22.9684C3.07903 21.1894 4.70088 19.5741 6.38858 17.894C7.43085 20.372 8.44512 22.7819 9.48079 25.2453C10.2283 24.8723 10.8524 24.5626 11.5357 24.222C10.4671 21.6775 9.41822 19.1849 8.32821 16.5902H14.9918H14.9934Z" fill="#F70000"/>
<path d="M14.9934 16.5902H8.32986C9.41987 19.1849 10.4671 21.6775 11.5373 24.222C10.854 24.5626 10.23 24.8723 9.48244 25.2453C8.44677 22.7819 7.4325 20.372 6.39024 17.8941C4.70088 19.5742 3.07904 21.1894 1.29254 22.9684V3.03101C5.79089 7.48262 10.3963 12.0397 14.9951 16.5902H14.9934Z" fill="#FFFAE5"/>
</g>
<defs>
<clipPath id="clip0_123_81">
<rect width="18" height="27" fill="white"/>
</clipPath>
</defs>
</svg>
